# xmcd CD database file
#
# Track frame offsets:
#	150
#	21881
#	37136
#	58946
#	76597
#	90742
#	103556
#	117806
#	137709
#	155310
#	168818
#	198953
#	211778
#	236254
#	264281
#
# Disc length: 4623 seconds
#
# Revision: 1
# Processed by: cddbd v1.5.2PL0 Copyright (c) Steve Scherf et al.
# Submitted via: CDex 1.70beta2
#
DISCID=b5120d0f
DTITLE=Various Artist - Blue Rose Nuggets - 31 - Season 3 - WAV
DYEAR=2008
DGENRE=Country-Rock
TTITLE0=Band Of Heathens - Unsleeping Eye
TTITLE1=Big In Iowa - Neon Signs
TTITLE2=Steve Wynn and The Miracle 3 - Survival Blues
TTITLE3=Hooblers - You Don't Even Wonder
TTITLE4=Whipsaws - Jessi Jane
TTITLE5=Red Star Belgrade - The Man You Never Saw
TTITLE6=Resentments - Jesse Taylor
TTITLE7=Blue Mountain - Blue Canoe
TTITLE8=John Hiatt - On With You
TTITLE9=Baseball Project - Past Time
TTITLE10=Hank Shizzoe and The Directors - The Farmer's Song (Live)
TTITLE11=Rainravens - Put Your Hand On The Radio
TTITLE12=Elliott Murphy and Iain Matthews - Close To The Bone
TTITLE13=Kasey Anderson - Last Thin Line
TTITLE14=The Band Of Heaters
EXTD=YEAR: 2008
EXTT0=
EXTT1=
EXTT2=
EXTT3=
EXTT4=
EXTT5=
EXTT6=
EXTT7=
EXTT8=
EXTT9=
EXTT10=
EXTT11=
EXTT12=
EXTT13=
EXTT14=
PLAYORDER=
